# xmcd
#
# Track frame offsets: 
#        300
#        18332
#        39062
#        58744
#        81200
#        105453
#        126782
#        145562
#        173564
#        197894
#        220350
#        240781
#        266158
#        289812
#
# Disc length: 4260 seconds
#
# Revision: 0
# Processed by: cddbd v1.5.2PL0 Copyright (c) Steve Scherf et al.
# Submitted via: ExactAudioCopy v1.0b1
#
DISCID=bd10a00e
DTITLE=Robert Cray - Robert Cray Live At The BBC
DYEAR=2007
DGENRE=Contemporary Blues
TTITLE0=I Guess I Showed Her
TTITLE1=Foul Play
TTITLE2=Don't Be Afraid Of The Dark
TTITLE3=Don't You Even Care
TTITLE4=Night Patrol
TTITLE5=Nothin' But A Woman
TTITLE6=Phone Booth
TTITLE7=These Things
TTITLE8=My Problem
TTITLE9=The Forecast (Calls For Pain)
TTITLE10=Consequences
TTITLE11=Right Next Door (Because Of Me)
TTITLE12=Acting This Way
TTITLE13=Smoking Gun
EXTD=
EXTT0=
EXTT1=
EXTT2=
EXTT3=
EXTT4=
EXTT5=
EXTT6=
EXTT7=
EXTT8=
EXTT9=
EXTT10=
EXTT11=
EXTT12=
EXTT13=
PLAYORDER=
